<svg xmlns="http://www.w3.org/2000/svg">
  <defs>
    <symbol id="up_arrow_water_drop" viewBox="0 -10 100 125" xml:space="preserve">
        <g><g><path style="" d="    M74.75,65c0,13.669-11.081,24.75-24.75,24.75S25.25,78.669,25.25,65s0-13.669,24.75-54.75C74.75,51.331,74.75,51.331,74.75,65z" /><g><line style="" x1="50" y1="72.013" x2="50" y2="44.969" fill="none" stroke="#000000" stroke-width="2" stroke-linecap="round" stroke-linejoin="round" stroke-miterlimit="10"/><polyline style="" points="     57.243,54.533 50,41.987 42.757,54.533    " fill="none" stroke="#000000" stroke-width="2" stroke-linecap="round" stroke-linejoin="round" stroke-miterlimit="10"/></g></g></g>
    </symbol>

    <symbol id="potted_plant_generic" viewBox="0 0 70 100" xml:space="preserve">
        <path d="M25.7055664,31.2480469c-0.5366211,0.0063477-0.9726562,0.4350586-0.987793,0.9716797  c-0.0161133,0.5737305-0.3300781,14.1142578,5.5180664,19.9594727c2.2436523,2.2421875,5.1748047,3.3686523,8.0737305,3.3686523  c2.461792-0.0004272,4.8977661-0.8173828,6.8690796-2.4505005L49,56.9135742v1.0922852H32.5625c-0.5522461,0-1,0.4477539-1,1  v8.1342773c0,0.5522461,0.4477539,1,1,1h0.7252808l1.9251099,20.9511719C35.2597656,89.605957,35.6918945,90,36.2084961,90  h27.6669922c0.5166016,0,0.9487305-0.394043,0.9956055-0.9086914l1.9251099-20.9511719H67.4375c0.5522461,0,1-0.4477539,1-1  v-8.1342773c0-0.5522461-0.4477539-1-1-1H51v-1.0924072l3.8212891-3.8161011  c1.9712524,1.6331787,4.4069214,2.4505005,6.8691406,2.4505005c2.8984375,0,5.8305664-1.1269531,8.0737305-3.3686523  c5.8481445-5.8452148,5.5341797-19.3857422,5.5180664-19.9594727c-0.0151367-0.5366211-0.4511719-0.965332-0.987793-0.9716797  c-0.4390259-0.0136108-8.3165283-0.0648804-14.5892944,2.2974243c0.7974243-1.5652466,1.2546997-3.3428955,1.2553101-5.2305298  c0,0,0,0,0-0.0004883c0.0019531-8.2797852-9.8085938-17.6464844-10.2260742-18.0410156  c-0.3901367-0.3691406-1.0024414-0.3637695-1.3857422,0.0112305c-0.4174805,0.4077148-10.2226562,10.0766602-10.2246094,18.0351562  c-0.0006104,1.8641357,0.4356079,3.6587524,1.2553711,5.2615356C34.0921631,31.1890869,26.1439819,31.2428589,25.7055664,31.2480469  z M62.9633789,88H37.1206055l-1.8248291-19.8598633H64.788208L62.9633789,88z M66.4375,66.1401367h-32.875v-6.1342773h32.875  V66.1401367z M44.2446289,38.1782227c1.7553711,1.753418,2.7456055,4.059082,2.7890625,6.4912109  c0.0372314,2.0717163-0.6224976,4.020813-1.8654175,5.5913086l-1.8610229-1.8585205l0.2780151-10.8005371  C43.8138428,37.788208,44.041687,37.9754028,44.2446289,38.1782227z M41.3569946,46.4545898l-4.6270142-4.6207886  l0.1865845-7.2461548c1.6646118,0.4266968,3.2869873,0.9901733,4.701355,1.7331543L41.3569946,46.4545898z M27.9889526,43.4432983  l7.3335571-0.1887817l4.6292725,4.6229858l-10.189209,0.262146C28.9949341,46.7166138,28.4190063,45.0987549,27.9889526,43.4432983z   M34.7797852,39.8862305l-6.5718994-6.5629883c1.7338257,0.0965576,4.1854248,0.3180542,6.7199707,0.8131714L34.7797852,39.8862305z   M33.369812,41.3044434l-5.8363037,0.1502075c-0.4987793-2.55896-0.6980591-5.0219116-0.7744751-6.7520752L33.369812,41.3044434z   M31.6499023,50.7641602c-0.2040405-0.2039185-0.3912354-0.4311523-0.5787964-0.6577759l10.8334351-0.2787476l1.8514404,1.848938  C40.2484741,54.4546509,35.0159302,54.1283569,31.6499023,50.7641602z M46.5929565,51.6834717  c1.6252441-1.9628906,2.487793-4.4287109,2.4407349-7.0501709c-0.0339966-1.8877563-0.5406494-3.7084351-1.4530029-5.3324585  c0.7971191,0.1885986,1.6176147,0.2963257,2.4559326,0.2963257c0.0009766,0,0.0019531,0,0.0029297,0  c0.0019531,0,0.0038452-0.0003052,0.0057983-0.0003052c0.0005493,0,0.0009766,0.0003052,0.0015259,0.0003052  c0.0009155,0,0.0016479-0.0005493,0.0025635-0.0005493c0.8099365-0.0010376,1.5969849-0.1002808,2.3571167-0.2749634  c-0.9048462,1.6186523-1.4063721,3.4321289-1.4402466,5.3116455c-0.0470581,2.62146,0.8154907,5.0872803,2.4407349,7.0501709  L50,55.0859375L46.5929565,51.6834717z M41.1829224,27.4418945l7.8639526,7.4693604v2.6248779  c-2.0001831-0.2287598-3.8547974-1.1436768-5.300293-2.6420898c-1.6918945-1.7539062-2.6235352-4.0883789-2.6225586-6.5732422  C41.1240845,28.0322266,41.152832,27.7371826,41.1829224,27.4418945z M43.7734985,20.586853l5.2733765,5.008667v6.557373  l-7.3775635-7.0071411C42.1453247,23.6176147,42.8959351,22.0687866,43.7734985,20.586853z M58.4384155,25.1196899  l-7.3915405,7.0202637v-6.5518799l5.3200684-5.0536499C57.2354736,22.0123291,57.973938,23.5672607,58.4384155,25.1196899z   M58.9604492,28.3139648c-0.0018311,4.762085-3.4690552,8.6942749-7.9135742,9.2192993v-2.6349487l7.8573608-7.4630127  C58.9320679,27.7296143,58.9605103,28.0241089,58.9604492,28.3139648z M49.046875,22.8371582l-4.1859741-3.975647  c1.4456177-2.147522,3.0262451-4.0426636,4.1859741-5.3396606V22.8371582z M72.4689331,41.4547119l-5.8387451-0.1502686  l6.6119385-6.6030273C73.1663208,36.4313354,72.9678345,38.8947754,72.4689331,41.4547119z M70.2383423,48.1397095  l-10.1901855-0.262207l4.6292725-4.6229858l7.3359375,0.1888428C71.5831909,45.0985107,71.0067749,46.7163696,70.2383423,48.1397095  z M65.2202148,39.8862305l-0.1480103-5.7477417c2.5337524-0.4949951,4.9850464-0.7171631,6.7188721-0.814209L65.2202148,39.8862305z   M63.2700195,41.8338013l-4.6270142,4.6207886l-0.2608643-10.1329346c1.4141235-0.7422485,3.036499-1.305481,4.7012939-1.7320557  L63.2700195,41.8338013z M56.692749,48.4022217l-1.8610229,1.8585205c-1.2429199-1.5704956-1.9026489-3.5195923-1.8654175-5.5913086  c0.043457-2.4321289,1.0336914-4.737793,2.7890625-6.4912109c0.2029419-0.2028198,0.4307251-0.3899536,0.6593628-0.576416  L56.692749,48.4022217z M56.2441406,51.6764526l1.8512573-1.8488159l10.8335571,0.2787476  c-0.1876221,0.2265625-0.3747559,0.4538574-0.5788574,0.6577759C64.9836426,54.1287842,59.7516479,54.4534912,56.2441406,51.6764526  z M55.2827759,18.8061523l-4.2359009,4.0234985v-9.3571167C52.2182617,14.7521973,53.8226929,16.638916,55.2827759,18.8061523z"/>
    </symbol>

    <symbol id="potted_plant_succulent" viewBox="0 0 60 120" xml:space="preserve">
        <path d="M28.3818359,55.7227783v8.7762451c0,0.5522461,0.4472656,1,1,1h1.996582l2.1674805,23.5922852  C33.59375,89.605957,34.0253906,90,34.5419922,90h31.0097656c0.5166016,0,0.9482422-0.394043,0.9960938-0.9086914  l2.168396-23.5922852h1.9019165c0.5527344,0,1-0.4477539,1-1v-8.7762451  c4.9244385-1.4096069,13.3049316-5.8336792,18.3222656-19.7164307c0.1005859-0.2788086,0.0722656-0.5874023-0.0761719-0.84375  c-0.1494141-0.2558594-0.4042969-0.4321289-0.6962891-0.4819336c-0.5854492-0.1002808-13.3516846-2.1296387-24.399231,6.4186401  c2.3706665-6.6920166,6.2252808-14.7119141,12.3894653-21.5109253c0.3144531-0.347168,0.3457031-0.8657227,0.0761719-1.2480469  c-0.2705078-0.3833008-0.7695312-0.5273438-1.2011719-0.347168c-0.2568359,0.1069336-6.3740234,2.6772461-12.7978516,7.875  c-2.1125488,1.7094727-4.0010376,3.50354-5.6621704,5.3671875c-0.7736206-11.5175781-6.4759521-20.3839722-6.7362671-20.7822266  c-0.3691406-0.5654297-1.3046875-0.5654297-1.6738281,0c-0.2603149,0.3982544-5.9626465,9.2646484-6.7362671,20.7822266  c-1.6611328-1.8636475-3.5496216-3.6577148-5.6621704-5.3671875c-6.4238281-5.1977539-12.5410156-7.7680664-12.7978516-7.875  c-0.4306641-0.1787109-0.9296875-0.0356445-1.2011719,0.347168c-0.2695312,0.3823242-0.2382812,0.9008789,0.0761719,1.2480469  c6.1641846,6.7990112,10.0188599,14.8189087,12.3895264,21.5109863c-11.0474854-8.5477905-23.8129883-6.5180664-24.399292-6.4187012  c-0.2919922,0.0498047-0.546875,0.2260742-0.6962891,0.4819336c-0.1484375,0.2563477-0.1767578,0.5649414-0.0761719,0.84375  C15.0769653,49.8890991,23.4573975,54.3131714,28.3818359,55.7227783z M64.6396484,88H35.4541016l-2.0667114-22.5009766h33.3199463  L64.6396484,88z M69.6181641,56.3818359v7.1171875H30.3818359v-7.1171875H69.6181641z M87.6103516,36.519043  c-6.8896484,17.5795898-19.3837891,17.8598633-19.9238281,17.862793H61.335083  c0.2126465-1.4005127,0.8373413-4.9707031,2.2270508-9.5943604C72.519043,36.1491699,83.90625,36.2261963,87.6103516,36.519043z   M50,12.9804688c1.7425537,3.1697998,5.5935669,11.2338257,5.656311,20.5823364  C52.9914551,37.0377808,51.0895386,40.723877,50,44.5442505c-1.0895386-3.8203735-2.9914551-7.5064697-5.656311-10.9814453  C44.4064331,24.2142944,48.2574463,16.1502686,50,12.9804688z M49.0039062,50.0834961  c0.0032349,0.0385132,0.0239868,0.0697632,0.0314941,0.1068115c0.0140381,0.071228,0.0314941,0.1378174,0.0599976,0.203064  c0.0231934,0.0525513,0.050354,0.0992432,0.0818481,0.1465454c0.0404053,0.0615845,0.0836182,0.1166382,0.1364136,0.1678467  c0.039917,0.0386963,0.0814819,0.0703735,0.1270142,0.1020508c0.0574951,0.039917,0.1154785,0.0737915,0.1812744,0.1011353  c0.0599365,0.0255127,0.1203613,0.0405273,0.1846924,0.053772c0.0379028,0.0076904,0.0699463,0.0285034,0.109375,0.0318604  c0.029541,0.0026245,0.0556641-0.0096436,0.0847778-0.0095825c0.0284424,0,0.0545044,0.012207,0.0831909,0.0095825  c0.038208-0.0032349,0.0692139-0.0235596,0.105957-0.0308838c0.0704346-0.0137329,0.1363525-0.0304565,0.2009277-0.0584717  c0.0558472-0.0241089,0.1051025-0.0532227,0.1549683-0.0865479c0.0561523-0.0374756,0.1070557-0.0762939,0.1546021-0.1242676  c0.0441284-0.0443726,0.079834-0.0916138,0.1149902-0.1433716c0.0361938-0.0532837,0.0675659-0.1064453,0.0931396-0.166687  c0.0264893-0.0618896,0.0419922-0.125061,0.055542-0.1923218c0.0076904-0.038269,0.0287476-0.0706787,0.0319824-0.1105347  c1.2392578-14.75,14.5898438-24.1538086,21.5849609-28.1040039C62.2682495,35.5814819,59.6968994,51.5518188,59.3108521,54.3818359  H40.6891479c-0.3861084-2.8303833-2.9584961-18.8046875-13.2741089-32.4077148  C34.4082031,25.9169922,47.7626953,35.3139648,49.0039062,50.0834961z M36.4378052,44.7874146  c1.3897095,4.6237183,2.0144653,8.1939087,2.2271118,9.5944214h-6.3514404  c-0.5400391-0.0029297-13.0351562-0.2822266-19.9248047-17.8652344  C16.0879517,36.2174683,27.4619141,36.1289062,36.4378052,44.7874146z"/>
    </symbol>

    <symbol id="potted_plant_generic2" viewBox="0 0 60 120" xml:space="preserve">
        <path d="M30.0254517,54.3818359h-0.6436157c-0.5522461,0-1,0.4477539-1,1v9.1171875c0,0.5522461,0.4477539,1,1,1h1.9970703  l2.1674805,23.5922852C33.5932617,89.605957,34.0253906,90,34.5419922,90h31.0102539  c0.5166016,0,0.9487305-0.394043,0.9956055-0.9086914l2.1674805-23.5922852h1.902832c0.5522461,0,1-0.4477539,1-1v-9.1171875  c0-0.5522461-0.4477539-1-1-1h-0.9370728c1.6240845-1.7044067,3.5609741-4.8309326,4.750061-10.5532227  c2.0004883-9.6289062,6.9042969-10.4858398,7.1005859-10.5161133c0.4277344-0.0546875,0.7714844-0.3774414,0.8540039-0.800293  c0.0825195-0.4233398-0.1152344-0.8515625-0.4907227-1.0629883c-0.0686646-0.0387573-3.2131958-1.7701416-7.2580566-2.6638184  c2.7233276-6.3469849-1.62854-13.6884766-1.8249512-14.0124512c-0.152832-0.2519531-0.4086914-0.4238281-0.6992188-0.4697266  c-0.293457-0.0454102-0.5869141,0.0390625-0.8100586,0.230957c-0.0307617,0.0263672-3.1152344,2.668457-7.0332031,4.0917969  c-2.3512573,0.8536987-4.47052,1.2217407-5.706665,1.3773804c0.2824097-3.0108032,1.2889404-4.5238647,1.3067627-4.5492554  c0.2587891-0.3574219,0.2524414-0.8422852-0.0151367-1.1928711c-0.2680664-0.3515625-0.7348633-0.4853516-1.1464844-0.3295898  c-0.3465576,0.130249-6.2301636,2.4008789-11.0657959,7.663269c-0.8009033-2.4298096-2.9379272-6.2714844-8.6114502-7.6969604  c-6.9990234-1.7587891-8.3618164-3.4003906-8.3696289-3.4003906c0,0,0,0,0,0.0004883  c-0.190918-0.3291016-0.5483398-0.5166016-0.9335938-0.4956055c-0.3803711,0.0263672-0.7124023,0.2666016-0.8569336,0.6191406  c-0.18396,0.4501343-4.0805054,10.2446899,0.4391479,18.8327026c-4.2770386-1.6613159-4.3125-3.694519-4.3141479-3.694519  c0.0449219-0.4780273-0.2563477-0.9204102-0.7177734-1.0537109c-0.4589844-0.1337891-0.9521484,0.0795898-1.1694336,0.5073242  c-0.2539062,0.5-6.1669922,12.3457031-1.5302734,21.581543C23.253479,50.1317749,26.0878906,52.6659546,30.0254517,54.3818359z   M64.6401367,88H35.4541016l-2.0671997-22.5009766h33.3204346L64.6401367,88z M69.6181641,63.4990234H30.3818359v-7.1171875  h39.2363281V63.4990234z M72.4731445,43.4213867c-1.8458252,8.8834229-5.4613037,10.7125854-6.067688,10.9604492h-8.1838379  c2.8682251-1.3532104,6.7376709-3.6497803,8.644104-6.8564453c0.2822266-0.4750977,0.1264648-1.0883789-0.3481445-1.3706055  c-0.4765625-0.2832031-1.0883789-0.1264648-1.3706055,0.3481445c-1.9313354,3.2487793-6.460022,5.5396118-9.0826416,6.6482544  c3.4564819-3.7037354,8.3157959-10.6967773,5.756897-18.7995605c4.5089722-6.4505005,13.2255859-3.7512207,17.1245728-2.0933228  C76.8564453,33.5292969,73.909668,36.5068359,72.4731445,43.4213867z M64.9521484,20.5058594  c2.9306641-1.0644531,5.3881836-2.7182617,6.6816406-3.6850586c1.0466309,2.1590576,3.0805664,7.3607788,0.9718018,11.6054077  c-1.9718018-0.2549438-4.0580444-0.2376099-6.0517578,0.2866821c1.0622559-1.2283325,2.0675049-2.6269531,2.8001709-4.1557617  c0.2387695-0.4980469,0.0283203-1.0952148-0.4697266-1.3339844c-0.4975586-0.2382812-1.0952148-0.0288086-1.3339844,0.4697266  c-1.6999512,3.5469971-5.1640625,6.4555664-6.8650513,7.7382202c-1.5633545-3.8234863-2.1329956-6.9619751-2.1918335-9.4026489  C59.7827148,21.8851929,62.2063599,21.5029297,64.9521484,20.5058594z M57.0864258,16.9047852  c-0.8681641,2.9555664-1.3583984,8.4189453,2.2426758,16.480957c5.0600586,11.3291016-7.3623047,20.8935547-7.4887695,20.9887695  c-0.0026855,0.0020752-0.0037842,0.005249-0.0064697,0.0073242h-0.3850098  c0.9197998-3.0854492,3.1055298-11.9188843,0.708374-19.6572266c-0.1630859-0.527832-0.7246094-0.8242188-1.2509766-0.6591797  c-0.5273438,0.1630859-0.8227539,0.7236328-0.6591797,1.2509766c2.3826904,7.692627-0.223877,16.9320068-0.8932495,19.0654297  h-0.824707c-0.0112305-0.0238647-0.0109253-0.0499268-0.024231-0.0732422  c-5.121582-8.9702148-6.4604492-17.0136719-3.9794922-23.9077148C47.171875,23.046875,53.6064453,18.7607422,57.0864258,16.9047852z   M30.2739258,12.7124023c1.2753906,0.8334961,3.7006836,1.9770508,8.2695312,3.125  c6.144104,1.5437622,7.3186035,6.2622681,7.5319824,7.6260986c-1.3639526,1.7923584-2.5671387,3.8636475-3.4255371,6.2425537  c-0.1552734,0.4304199-0.2936401,0.8655396-0.421875,1.3034058c-0.7061768-2.7713623-2.3464355-6.7176514-6.1826172-10.2453003  c-0.40625-0.3740234-1.0395508-0.347168-1.4125977,0.059082c-0.3740234,0.40625-0.3476562,1.0390625,0.059082,1.4125977  c4.7327881,4.3527832,5.7747192,9.501709,6.0046387,11.4888916c-1.6209717-1.0799561-4.2444458-2.27948-8.4789429-3.3743286  C27.6270142,23.9398193,29.3355103,15.8570557,30.2739258,12.7124023z M23.9750977,28.2563477  c1.0307617,1.3291016,3.1298828,2.8676758,7.3833008,3.9365234c8.706604,2.1885376,9.8464355,4.618042,9.9591064,4.9309082  c-0.0726929,4.9052734,1.3303833,10.1951904,4.1848755,15.8145142c-3.8961792-2.0708008-12.3149414-7.2018433-15.1229858-14.1467896  c-0.2070312-0.5117188-0.7875977-0.7573242-1.3022461-0.5522461c-0.5117188,0.2070312-0.7592773,0.7900391-0.5522461,1.3022461  c2.9307251,7.248291,11.0856323,12.4802246,15.4176636,14.840332h-6.7728882  c-6.9345703-1.2061768-11.5784302-4.0576782-13.8005371-8.4775391  C20.2768555,39.7539062,22.5517578,31.9580078,23.9750977,28.2563477z"/>
    </symbol>

    <symbol id="potted_plant_cactus" viewBox="0 0 60 120" xml:space="preserve">
        <path d="M19.3769531,32.4677734c0.3652344,5.8632812,5.0332031,10.4018555,10.8876953,10.6225586  c0.0605469,0.0117188,0.1230469,0.0175781,0.1875,0.0175781h0.5595703c1.515625,0,3.0419922-0.128418,4.5361328-0.3818359  l3.7991943-0.644043L39.786499,56.699707h-7.8265381c-0.5527344,0-1,0.4477539-1,1v8.4882812c0,0.5522461,0.4472656,1,1,1h0.7967529  l2.0118408,21.9033203C34.8164062,89.605957,35.2480469,90,35.7646484,90h28.8720703  c0.5166016,0,0.9482422-0.394043,0.9960938-0.9086914l2.0128174-21.9033203h0.7088623c0.5527344,0,1-0.4477539,1-1V57.699707  c0-0.5522461-0.4472656-1-1-1H60.432312l0.1450806-4.8270874l2.8190918,0.3139038  c1.2138672,0.1352539,2.4443359,0.2036133,3.6660156,0.2036133c0.1542969,0,0.3095703-0.0014648,0.4648438-0.003418  l0.8339844-0.0131836c6.6796875-0.4399414,11.9912109-5.8085938,12.3554688-12.4892578l0.6210938-11.4121094  c0.125-2.2861328-0.7333984-4.5263672-2.3535156-6.1450195c-1.6191406-1.6176758-3.8720703-2.4716797-6.1582031-2.3452148  c-4.4277344,0.2460938-7.828125,4.1665039-7.5791016,8.7392578l0.2412109,4.4194336  c0.1191406,2.2080078-1.4326172,4.1601562-3.609375,4.5410156l-0.8795776,0.1536865l0.4840698-16.1053467  c0.0791016-3.1210938-1.0742188-6.0683594-3.2480469-8.2983398C56.078125,11.21875,53.1923828,10,50.109375,10  s-5.9697266,1.2192383-8.1269531,3.4326172c-2.1738281,2.2299805-3.3271484,5.1767578-3.2470703,8.3022461l0.2556763,8.5039673  l-3.6384888-0.4810181c-1.6015625-0.2119141-2.7773438-1.640625-2.6767578-3.253418l0.2763672-4.4345703  c0.1240234-1.9838867-0.5576172-3.8740234-1.9189453-5.3222656c-1.3603516-1.4482422-3.2050781-2.2460938-5.1923828-2.2460938  s-3.8320312,0.7978516-5.1923828,2.2460938c-1.3613281,1.4482422-2.0429688,3.3383789-1.9189453,5.3222656L19.3769531,32.4677734z   M63.7246094,88H36.6767578L34.765625,67.1879883h30.8710327L63.7246094,88z M67.3544922,65.1879883H32.9599609V58.699707  h34.3945312V65.1879883z M62.2226562,39.6513672c3.1748047-0.5546875,5.4375-3.4003906,5.2617188-6.6196289l-0.2412109-4.4194336  c-0.1884766-3.4726562,2.3652344-6.4482422,5.6943359-6.6333008c1.7519531-0.0981445,3.3984375,0.5292969,4.6328125,1.7631836  c1.21875,1.2172852,1.8642578,2.9018555,1.7714844,4.621582l-0.6210938,11.4116211  c-0.3105469,5.6713867-4.8203125,10.2290039-10.4394531,10.6000977l-0.7832031,0.0112305  c-1.2763672,0.0195312-2.5947266-0.0449219-3.8808594-0.1875l-2.9794922-0.3317871l0.300293-9.9915771L62.2226562,39.6513672z   M43.4140625,14.8286133C45.1923828,13.0043945,47.5703125,12,50.109375,12s4.9160156,1.0043945,6.6933594,2.8276367  c1.7949219,1.8408203,2.7470703,4.2739258,2.6806641,6.8466797L58.430481,56.699707H41.788269l-1.0529175-35.0205078  C40.6689453,19.1020508,41.6201172,16.6689453,43.4140625,14.8286133z M22.1054688,18.1171875  c0.9794922-1.0419922,2.3056641-1.6157227,3.7353516-1.6157227s2.7558594,0.5737305,3.7353516,1.6157227  c0.9785156,1.0415039,1.46875,2.4013672,1.3798828,3.8286133l-0.2763672,4.434082  c-0.1660156,2.6572266,1.7714844,5.0117188,4.4111328,5.3603516l3.9610596,0.5236816l0.2344971,7.8001099l-4.0725098,0.6903687  c-1.3847656,0.234375-2.7978516,0.3535156-4.2021484,0.3535156h-0.4033203  c-0.0429688-0.0068359-0.0878906-0.0107422-0.1328125-0.0117188c-4.8847656-0.1166992-8.7988281-3.8793945-9.1025391-8.7524414  l-0.6474609-10.3979492C20.6367188,20.5185547,21.1269531,19.1586914,22.1054688,18.1171875z"/>
    </symbol>

  </defs>
</svg>