<svg xmlns="http://www.w3.org/2000/svg" xmlns:xlink="http://www.w3.org/1999/xlink" version="1.1" x="0px" y="0px" viewBox="0 0 100 125" style="enable-background:new 0 0 100 100;" xml:space="preserve"><path d="M19.3769531,32.4677734c0.3652344,5.8632812,5.0332031,10.4018555,10.8876953,10.6225586  c0.0605469,0.0117188,0.1230469,0.0175781,0.1875,0.0175781h0.5595703c1.515625,0,3.0419922-0.128418,4.5361328-0.3818359  l3.7991943-0.644043L39.786499,56.699707h-7.8265381c-0.5527344,0-1,0.4477539-1,1v8.4882812c0,0.5522461,0.4472656,1,1,1h0.7967529  l2.0118408,21.9033203C34.8164062,89.605957,35.2480469,90,35.7646484,90h28.8720703  c0.5166016,0,0.9482422-0.394043,0.9960938-0.9086914l2.0128174-21.9033203h0.7088623c0.5527344,0,1-0.4477539,1-1V57.699707  c0-0.5522461-0.4472656-1-1-1H60.432312l0.1450806-4.8270874l2.8190918,0.3139038  c1.2138672,0.1352539,2.4443359,0.2036133,3.6660156,0.2036133c0.1542969,0,0.3095703-0.0014648,0.4648438-0.003418  l0.8339844-0.0131836c6.6796875-0.4399414,11.9912109-5.8085938,12.3554688-12.4892578l0.6210938-11.4121094  c0.125-2.2861328-0.7333984-4.5263672-2.3535156-6.1450195c-1.6191406-1.6176758-3.8720703-2.4716797-6.1582031-2.3452148  c-4.4277344,0.2460938-7.828125,4.1665039-7.5791016,8.7392578l0.2412109,4.4194336  c0.1191406,2.2080078-1.4326172,4.1601562-3.609375,4.5410156l-0.8795776,0.1536865l0.4840698-16.1053467  c0.0791016-3.1210938-1.0742188-6.0683594-3.2480469-8.2983398C56.078125,11.21875,53.1923828,10,50.109375,10  s-5.9697266,1.2192383-8.1269531,3.4326172c-2.1738281,2.2299805-3.3271484,5.1767578-3.2470703,8.3022461l0.2556763,8.5039673  l-3.6384888-0.4810181c-1.6015625-0.2119141-2.7773438-1.640625-2.6767578-3.253418l0.2763672-4.4345703  c0.1240234-1.9838867-0.5576172-3.8740234-1.9189453-5.3222656c-1.3603516-1.4482422-3.2050781-2.2460938-5.1923828-2.2460938  s-3.8320312,0.7978516-5.1923828,2.2460938c-1.3613281,1.4482422-2.0429688,3.3383789-1.9189453,5.3222656L19.3769531,32.4677734z   M63.7246094,88H36.6767578L34.765625,67.1879883h30.8710327L63.7246094,88z M67.3544922,65.1879883H32.9599609V58.699707  h34.3945312V65.1879883z M62.2226562,39.6513672c3.1748047-0.5546875,5.4375-3.4003906,5.2617188-6.6196289l-0.2412109-4.4194336  c-0.1884766-3.4726562,2.3652344-6.4482422,5.6943359-6.6333008c1.7519531-0.0981445,3.3984375,0.5292969,4.6328125,1.7631836  c1.21875,1.2172852,1.8642578,2.9018555,1.7714844,4.621582l-0.6210938,11.4116211  c-0.3105469,5.6713867-4.8203125,10.2290039-10.4394531,10.6000977l-0.7832031,0.0112305  c-1.2763672,0.0195312-2.5947266-0.0449219-3.8808594-0.1875l-2.9794922-0.3317871l0.300293-9.9915771L62.2226562,39.6513672z   M43.4140625,14.8286133C45.1923828,13.0043945,47.5703125,12,50.109375,12s4.9160156,1.0043945,6.6933594,2.8276367  c1.7949219,1.8408203,2.7470703,4.2739258,2.6806641,6.8466797L58.430481,56.699707H41.788269l-1.0529175-35.0205078  C40.6689453,19.1020508,41.6201172,16.6689453,43.4140625,14.8286133z M22.1054688,18.1171875  c0.9794922-1.0419922,2.3056641-1.6157227,3.7353516-1.6157227s2.7558594,0.5737305,3.7353516,1.6157227  c0.9785156,1.0415039,1.46875,2.4013672,1.3798828,3.8286133l-0.2763672,4.434082  c-0.1660156,2.6572266,1.7714844,5.0117188,4.4111328,5.3603516l3.9610596,0.5236816l0.2344971,7.8001099l-4.0725098,0.6903687  c-1.3847656,0.234375-2.7978516,0.3535156-4.2021484,0.3535156h-0.4033203  c-0.0429688-0.0068359-0.0878906-0.0107422-0.1328125-0.0117188c-4.8847656-0.1166992-8.7988281-3.8793945-9.1025391-8.7524414  l-0.6474609-10.3979492C20.6367188,20.5185547,21.1269531,19.1586914,22.1054688,18.1171875z"/></svg>