<svg xmlns="http://www.w3.org/2000/svg" xmlns:xlink="http://www.w3.org/1999/xlink" version="1.1" x="0px" y="0px" viewBox="0 0 100 125" style="enable-background:new 0 0 100 100;" xml:space="preserve"><path d="M25.7055664,31.2480469c-0.5366211,0.0063477-0.9726562,0.4350586-0.987793,0.9716797  c-0.0161133,0.5737305-0.3300781,14.1142578,5.5180664,19.9594727c2.2436523,2.2421875,5.1748047,3.3686523,8.0737305,3.3686523  c2.461792-0.0004272,4.8977661-0.8173828,6.8690796-2.4505005L49,56.9135742v1.0922852H32.5625c-0.5522461,0-1,0.4477539-1,1  v8.1342773c0,0.5522461,0.4477539,1,1,1h0.7252808l1.9251099,20.9511719C35.2597656,89.605957,35.6918945,90,36.2084961,90  h27.6669922c0.5166016,0,0.9487305-0.394043,0.9956055-0.9086914l1.9251099-20.9511719H67.4375c0.5522461,0,1-0.4477539,1-1  v-8.1342773c0-0.5522461-0.4477539-1-1-1H51v-1.0924072l3.8212891-3.8161011  c1.9712524,1.6331787,4.4069214,2.4505005,6.8691406,2.4505005c2.8984375,0,5.8305664-1.1269531,8.0737305-3.3686523  c5.8481445-5.8452148,5.5341797-19.3857422,5.5180664-19.9594727c-0.0151367-0.5366211-0.4511719-0.965332-0.987793-0.9716797  c-0.4390259-0.0136108-8.3165283-0.0648804-14.5892944,2.2974243c0.7974243-1.5652466,1.2546997-3.3428955,1.2553101-5.2305298  c0,0,0,0,0-0.0004883c0.0019531-8.2797852-9.8085938-17.6464844-10.2260742-18.0410156  c-0.3901367-0.3691406-1.0024414-0.3637695-1.3857422,0.0112305c-0.4174805,0.4077148-10.2226562,10.0766602-10.2246094,18.0351562  c-0.0006104,1.8641357,0.4356079,3.6587524,1.2553711,5.2615356C34.0921631,31.1890869,26.1439819,31.2428589,25.7055664,31.2480469  z M62.9633789,88H37.1206055l-1.8248291-19.8598633H64.788208L62.9633789,88z M66.4375,66.1401367h-32.875v-6.1342773h32.875  V66.1401367z M44.2446289,38.1782227c1.7553711,1.753418,2.7456055,4.059082,2.7890625,6.4912109  c0.0372314,2.0717163-0.6224976,4.020813-1.8654175,5.5913086l-1.8610229-1.8585205l0.2780151-10.8005371  C43.8138428,37.788208,44.041687,37.9754028,44.2446289,38.1782227z M41.3569946,46.4545898l-4.6270142-4.6207886  l0.1865845-7.2461548c1.6646118,0.4266968,3.2869873,0.9901733,4.701355,1.7331543L41.3569946,46.4545898z M27.9889526,43.4432983  l7.3335571-0.1887817l4.6292725,4.6229858l-10.189209,0.262146C28.9949341,46.7166138,28.4190063,45.0987549,27.9889526,43.4432983z   M34.7797852,39.8862305l-6.5718994-6.5629883c1.7338257,0.0965576,4.1854248,0.3180542,6.7199707,0.8131714L34.7797852,39.8862305z   M33.369812,41.3044434l-5.8363037,0.1502075c-0.4987793-2.55896-0.6980591-5.0219116-0.7744751-6.7520752L33.369812,41.3044434z   M31.6499023,50.7641602c-0.2040405-0.2039185-0.3912354-0.4311523-0.5787964-0.6577759l10.8334351-0.2787476l1.8514404,1.848938  C40.2484741,54.4546509,35.0159302,54.1283569,31.6499023,50.7641602z M46.5929565,51.6834717  c1.6252441-1.9628906,2.487793-4.4287109,2.4407349-7.0501709c-0.0339966-1.8877563-0.5406494-3.7084351-1.4530029-5.3324585  c0.7971191,0.1885986,1.6176147,0.2963257,2.4559326,0.2963257c0.0009766,0,0.0019531,0,0.0029297,0  c0.0019531,0,0.0038452-0.0003052,0.0057983-0.0003052c0.0005493,0,0.0009766,0.0003052,0.0015259,0.0003052  c0.0009155,0,0.0016479-0.0005493,0.0025635-0.0005493c0.8099365-0.0010376,1.5969849-0.1002808,2.3571167-0.2749634  c-0.9048462,1.6186523-1.4063721,3.4321289-1.4402466,5.3116455c-0.0470581,2.62146,0.8154907,5.0872803,2.4407349,7.0501709  L50,55.0859375L46.5929565,51.6834717z M41.1829224,27.4418945l7.8639526,7.4693604v2.6248779  c-2.0001831-0.2287598-3.8547974-1.1436768-5.300293-2.6420898c-1.6918945-1.7539062-2.6235352-4.0883789-2.6225586-6.5732422  C41.1240845,28.0322266,41.152832,27.7371826,41.1829224,27.4418945z M43.7734985,20.586853l5.2733765,5.008667v6.557373  l-7.3775635-7.0071411C42.1453247,23.6176147,42.8959351,22.0687866,43.7734985,20.586853z M58.4384155,25.1196899  l-7.3915405,7.0202637v-6.5518799l5.3200684-5.0536499C57.2354736,22.0123291,57.973938,23.5672607,58.4384155,25.1196899z   M58.9604492,28.3139648c-0.0018311,4.762085-3.4690552,8.6942749-7.9135742,9.2192993v-2.6349487l7.8573608-7.4630127  C58.9320679,27.7296143,58.9605103,28.0241089,58.9604492,28.3139648z M49.046875,22.8371582l-4.1859741-3.975647  c1.4456177-2.147522,3.0262451-4.0426636,4.1859741-5.3396606V22.8371582z M72.4689331,41.4547119l-5.8387451-0.1502686  l6.6119385-6.6030273C73.1663208,36.4313354,72.9678345,38.8947754,72.4689331,41.4547119z M70.2383423,48.1397095  l-10.1901855-0.262207l4.6292725-4.6229858l7.3359375,0.1888428C71.5831909,45.0985107,71.0067749,46.7163696,70.2383423,48.1397095  z M65.2202148,39.8862305l-0.1480103-5.7477417c2.5337524-0.4949951,4.9850464-0.7171631,6.7188721-0.814209L65.2202148,39.8862305z   M63.2700195,41.8338013l-4.6270142,4.6207886l-0.2608643-10.1329346c1.4141235-0.7422485,3.036499-1.305481,4.7012939-1.7320557  L63.2700195,41.8338013z M56.692749,48.4022217l-1.8610229,1.8585205c-1.2429199-1.5704956-1.9026489-3.5195923-1.8654175-5.5913086  c0.043457-2.4321289,1.0336914-4.737793,2.7890625-6.4912109c0.2029419-0.2028198,0.4307251-0.3899536,0.6593628-0.576416  L56.692749,48.4022217z M56.2441406,51.6764526l1.8512573-1.8488159l10.8335571,0.2787476  c-0.1876221,0.2265625-0.3747559,0.4538574-0.5788574,0.6577759C64.9836426,54.1287842,59.7516479,54.4534912,56.2441406,51.6764526  z M55.2827759,18.8061523l-4.2359009,4.0234985v-9.3571167C52.2182617,14.7521973,53.8226929,16.638916,55.2827759,18.8061523z"/></svg>