<svg xmlns="http://www.w3.org/2000/svg" xmlns:xlink="http://www.w3.org/1999/xlink" version="1.1" x="0px" y="0px" viewBox="0 0 100 125" style="enable-background:new 0 0 100 100;" xml:space="preserve"><path d="M28.3818359,55.7227783v8.7762451c0,0.5522461,0.4472656,1,1,1h1.996582l2.1674805,23.5922852  C33.59375,89.605957,34.0253906,90,34.5419922,90h31.0097656c0.5166016,0,0.9482422-0.394043,0.9960938-0.9086914  l2.168396-23.5922852h1.9019165c0.5527344,0,1-0.4477539,1-1v-8.7762451  c4.9244385-1.4096069,13.3049316-5.8336792,18.3222656-19.7164307c0.1005859-0.2788086,0.0722656-0.5874023-0.0761719-0.84375  c-0.1494141-0.2558594-0.4042969-0.4321289-0.6962891-0.4819336c-0.5854492-0.1002808-13.3516846-2.1296387-24.399231,6.4186401  c2.3706665-6.6920166,6.2252808-14.7119141,12.3894653-21.5109253c0.3144531-0.347168,0.3457031-0.8657227,0.0761719-1.2480469  c-0.2705078-0.3833008-0.7695312-0.5273438-1.2011719-0.347168c-0.2568359,0.1069336-6.3740234,2.6772461-12.7978516,7.875  c-2.1125488,1.7094727-4.0010376,3.50354-5.6621704,5.3671875c-0.7736206-11.5175781-6.4759521-20.3839722-6.7362671-20.7822266  c-0.3691406-0.5654297-1.3046875-0.5654297-1.6738281,0c-0.2603149,0.3982544-5.9626465,9.2646484-6.7362671,20.7822266  c-1.6611328-1.8636475-3.5496216-3.6577148-5.6621704-5.3671875c-6.4238281-5.1977539-12.5410156-7.7680664-12.7978516-7.875  c-0.4306641-0.1787109-0.9296875-0.0356445-1.2011719,0.347168c-0.2695312,0.3823242-0.2382812,0.9008789,0.0761719,1.2480469  c6.1641846,6.7990112,10.0188599,14.8189087,12.3895264,21.5109863c-11.0474854-8.5477905-23.8129883-6.5180664-24.399292-6.4187012  c-0.2919922,0.0498047-0.546875,0.2260742-0.6962891,0.4819336c-0.1484375,0.2563477-0.1767578,0.5649414-0.0761719,0.84375  C15.0769653,49.8890991,23.4573975,54.3131714,28.3818359,55.7227783z M64.6396484,88H35.4541016l-2.0667114-22.5009766h33.3199463  L64.6396484,88z M69.6181641,56.3818359v7.1171875H30.3818359v-7.1171875H69.6181641z M87.6103516,36.519043  c-6.8896484,17.5795898-19.3837891,17.8598633-19.9238281,17.862793H61.335083  c0.2126465-1.4005127,0.8373413-4.9707031,2.2270508-9.5943604C72.519043,36.1491699,83.90625,36.2261963,87.6103516,36.519043z   M50,12.9804688c1.7425537,3.1697998,5.5935669,11.2338257,5.656311,20.5823364  C52.9914551,37.0377808,51.0895386,40.723877,50,44.5442505c-1.0895386-3.8203735-2.9914551-7.5064697-5.656311-10.9814453  C44.4064331,24.2142944,48.2574463,16.1502686,50,12.9804688z M49.0039062,50.0834961  c0.0032349,0.0385132,0.0239868,0.0697632,0.0314941,0.1068115c0.0140381,0.071228,0.0314941,0.1378174,0.0599976,0.203064  c0.0231934,0.0525513,0.050354,0.0992432,0.0818481,0.1465454c0.0404053,0.0615845,0.0836182,0.1166382,0.1364136,0.1678467  c0.039917,0.0386963,0.0814819,0.0703735,0.1270142,0.1020508c0.0574951,0.039917,0.1154785,0.0737915,0.1812744,0.1011353  c0.0599365,0.0255127,0.1203613,0.0405273,0.1846924,0.053772c0.0379028,0.0076904,0.0699463,0.0285034,0.109375,0.0318604  c0.029541,0.0026245,0.0556641-0.0096436,0.0847778-0.0095825c0.0284424,0,0.0545044,0.012207,0.0831909,0.0095825  c0.038208-0.0032349,0.0692139-0.0235596,0.105957-0.0308838c0.0704346-0.0137329,0.1363525-0.0304565,0.2009277-0.0584717  c0.0558472-0.0241089,0.1051025-0.0532227,0.1549683-0.0865479c0.0561523-0.0374756,0.1070557-0.0762939,0.1546021-0.1242676  c0.0441284-0.0443726,0.079834-0.0916138,0.1149902-0.1433716c0.0361938-0.0532837,0.0675659-0.1064453,0.0931396-0.166687  c0.0264893-0.0618896,0.0419922-0.125061,0.055542-0.1923218c0.0076904-0.038269,0.0287476-0.0706787,0.0319824-0.1105347  c1.2392578-14.75,14.5898438-24.1538086,21.5849609-28.1040039C62.2682495,35.5814819,59.6968994,51.5518188,59.3108521,54.3818359  H40.6891479c-0.3861084-2.8303833-2.9584961-18.8046875-13.2741089-32.4077148  C34.4082031,25.9169922,47.7626953,35.3139648,49.0039062,50.0834961z M36.4378052,44.7874146  c1.3897095,4.6237183,2.0144653,8.1939087,2.2271118,9.5944214h-6.3514404  c-0.5400391-0.0029297-13.0351562-0.2822266-19.9248047-17.8652344  C16.0879517,36.2174683,27.4619141,36.1289062,36.4378052,44.7874146z"/></svg>