<svg xmlns="http://www.w3.org/2000/svg" xmlns:xlink="http://www.w3.org/1999/xlink" version="1.1" x="0px" y="0px" viewBox="0 0 100 125" style="enable-background:new 0 0 100 100;" xml:space="preserve"><path d="M30.0254517,54.3818359h-0.6436157c-0.5522461,0-1,0.4477539-1,1v9.1171875c0,0.5522461,0.4477539,1,1,1h1.9970703  l2.1674805,23.5922852C33.5932617,89.605957,34.0253906,90,34.5419922,90h31.0102539  c0.5166016,0,0.9487305-0.394043,0.9956055-0.9086914l2.1674805-23.5922852h1.902832c0.5522461,0,1-0.4477539,1-1v-9.1171875  c0-0.5522461-0.4477539-1-1-1h-0.9370728c1.6240845-1.7044067,3.5609741-4.8309326,4.750061-10.5532227  c2.0004883-9.6289062,6.9042969-10.4858398,7.1005859-10.5161133c0.4277344-0.0546875,0.7714844-0.3774414,0.8540039-0.800293  c0.0825195-0.4233398-0.1152344-0.8515625-0.4907227-1.0629883c-0.0686646-0.0387573-3.2131958-1.7701416-7.2580566-2.6638184  c2.7233276-6.3469849-1.62854-13.6884766-1.8249512-14.0124512c-0.152832-0.2519531-0.4086914-0.4238281-0.6992188-0.4697266  c-0.293457-0.0454102-0.5869141,0.0390625-0.8100586,0.230957c-0.0307617,0.0263672-3.1152344,2.668457-7.0332031,4.0917969  c-2.3512573,0.8536987-4.47052,1.2217407-5.706665,1.3773804c0.2824097-3.0108032,1.2889404-4.5238647,1.3067627-4.5492554  c0.2587891-0.3574219,0.2524414-0.8422852-0.0151367-1.1928711c-0.2680664-0.3515625-0.7348633-0.4853516-1.1464844-0.3295898  c-0.3465576,0.130249-6.2301636,2.4008789-11.0657959,7.663269c-0.8009033-2.4298096-2.9379272-6.2714844-8.6114502-7.6969604  c-6.9990234-1.7587891-8.3618164-3.4003906-8.3696289-3.4003906c0,0,0,0,0,0.0004883  c-0.190918-0.3291016-0.5483398-0.5166016-0.9335938-0.4956055c-0.3803711,0.0263672-0.7124023,0.2666016-0.8569336,0.6191406  c-0.18396,0.4501343-4.0805054,10.2446899,0.4391479,18.8327026c-4.2770386-1.6613159-4.3125-3.694519-4.3141479-3.694519  c0.0449219-0.4780273-0.2563477-0.9204102-0.7177734-1.0537109c-0.4589844-0.1337891-0.9521484,0.0795898-1.1694336,0.5073242  c-0.2539062,0.5-6.1669922,12.3457031-1.5302734,21.581543C23.253479,50.1317749,26.0878906,52.6659546,30.0254517,54.3818359z   M64.6401367,88H35.4541016l-2.0671997-22.5009766h33.3204346L64.6401367,88z M69.6181641,63.4990234H30.3818359v-7.1171875  h39.2363281V63.4990234z M72.4731445,43.4213867c-1.8458252,8.8834229-5.4613037,10.7125854-6.067688,10.9604492h-8.1838379  c2.8682251-1.3532104,6.7376709-3.6497803,8.644104-6.8564453c0.2822266-0.4750977,0.1264648-1.0883789-0.3481445-1.3706055  c-0.4765625-0.2832031-1.0883789-0.1264648-1.3706055,0.3481445c-1.9313354,3.2487793-6.460022,5.5396118-9.0826416,6.6482544  c3.4564819-3.7037354,8.3157959-10.6967773,5.756897-18.7995605c4.5089722-6.4505005,13.2255859-3.7512207,17.1245728-2.0933228  C76.8564453,33.5292969,73.909668,36.5068359,72.4731445,43.4213867z M64.9521484,20.5058594  c2.9306641-1.0644531,5.3881836-2.7182617,6.6816406-3.6850586c1.0466309,2.1590576,3.0805664,7.3607788,0.9718018,11.6054077  c-1.9718018-0.2549438-4.0580444-0.2376099-6.0517578,0.2866821c1.0622559-1.2283325,2.0675049-2.6269531,2.8001709-4.1557617  c0.2387695-0.4980469,0.0283203-1.0952148-0.4697266-1.3339844c-0.4975586-0.2382812-1.0952148-0.0288086-1.3339844,0.4697266  c-1.6999512,3.5469971-5.1640625,6.4555664-6.8650513,7.7382202c-1.5633545-3.8234863-2.1329956-6.9619751-2.1918335-9.4026489  C59.7827148,21.8851929,62.2063599,21.5029297,64.9521484,20.5058594z M57.0864258,16.9047852  c-0.8681641,2.9555664-1.3583984,8.4189453,2.2426758,16.480957c5.0600586,11.3291016-7.3623047,20.8935547-7.4887695,20.9887695  c-0.0026855,0.0020752-0.0037842,0.005249-0.0064697,0.0073242h-0.3850098  c0.9197998-3.0854492,3.1055298-11.9188843,0.708374-19.6572266c-0.1630859-0.527832-0.7246094-0.8242188-1.2509766-0.6591797  c-0.5273438,0.1630859-0.8227539,0.7236328-0.6591797,1.2509766c2.3826904,7.692627-0.223877,16.9320068-0.8932495,19.0654297  h-0.824707c-0.0112305-0.0238647-0.0109253-0.0499268-0.024231-0.0732422  c-5.121582-8.9702148-6.4604492-17.0136719-3.9794922-23.9077148C47.171875,23.046875,53.6064453,18.7607422,57.0864258,16.9047852z   M30.2739258,12.7124023c1.2753906,0.8334961,3.7006836,1.9770508,8.2695312,3.125  c6.144104,1.5437622,7.3186035,6.2622681,7.5319824,7.6260986c-1.3639526,1.7923584-2.5671387,3.8636475-3.4255371,6.2425537  c-0.1552734,0.4304199-0.2936401,0.8655396-0.421875,1.3034058c-0.7061768-2.7713623-2.3464355-6.7176514-6.1826172-10.2453003  c-0.40625-0.3740234-1.0395508-0.347168-1.4125977,0.059082c-0.3740234,0.40625-0.3476562,1.0390625,0.059082,1.4125977  c4.7327881,4.3527832,5.7747192,9.501709,6.0046387,11.4888916c-1.6209717-1.0799561-4.2444458-2.27948-8.4789429-3.3743286  C27.6270142,23.9398193,29.3355103,15.8570557,30.2739258,12.7124023z M23.9750977,28.2563477  c1.0307617,1.3291016,3.1298828,2.8676758,7.3833008,3.9365234c8.706604,2.1885376,9.8464355,4.618042,9.9591064,4.9309082  c-0.0726929,4.9052734,1.3303833,10.1951904,4.1848755,15.8145142c-3.8961792-2.0708008-12.3149414-7.2018433-15.1229858-14.1467896  c-0.2070312-0.5117188-0.7875977-0.7573242-1.3022461-0.5522461c-0.5117188,0.2070312-0.7592773,0.7900391-0.5522461,1.3022461  c2.9307251,7.248291,11.0856323,12.4802246,15.4176636,14.840332h-6.7728882  c-6.9345703-1.2061768-11.5784302-4.0576782-13.8005371-8.4775391  C20.2768555,39.7539062,22.5517578,31.9580078,23.9750977,28.2563477z"/></svg>